<?xml version="1.0" encoding="UTF-8" ?>
<svg xmlns="http://www.w3.org/2000/svg" viewBox="0 0 30.87 30.6">
    <path fill="#004B9C" d="M241.682-143.175H245.9v4.216h-4.217Zm0-6.015H245.9v4.216h-4.217Zm6.325,6.015h4.217v4.216h-4.217Zm0-6.015h4.217v4.216h-4.217Zm6.325,6.015h4.215v4.216h-4.215Zm0-6.015h4.215v4.216h-4.215Zm6.324,6.015h4.217v4.216h-4.217Zm0-6.015h4.217v4.216h-4.217ZM237.842-136.9a1.648,1.648,0,0,0,1.648,1.648h27.576a1.648,1.648,0,0,0,1.648-1.648V-153.1H237.842Zm29.224-25.93h-4.423v2.28a2.722,2.722,0,0,1-2.719,2.719,2.722,2.722,0,0,1-2.719-2.719v-2.28h-7.854v2.28a2.722,2.722,0,0,1-2.719,2.719,2.722,2.722,0,0,1-2.719-2.719v-2.28H239.49a1.648,1.648,0,0,0-1.648,1.648v6.757h30.872v-6.757A1.648,1.648,0,0,0,267.066-162.828Zm-20.434,3.516a1.236,1.236,0,0,0,1.236-1.236v-4.065a1.236,1.236,0,0,0-1.236-1.236,1.236,1.236,0,0,0-1.236,1.236v4.065A1.236,1.236,0,0,0,246.632-159.311Zm13.292,0a1.236,1.236,0,0,0,1.236-1.236v-4.065a1.236,1.236,0,0,0-1.236-1.236,1.236,1.236,0,0,0-1.236,1.236v4.065A1.237,1.237,0,0,0,259.924-159.311Z" data-name="Path 57" transform="translate(-237.842 165.848)"/>
</svg>
